<svg width="24" height="24" viewBox="0 0 24 24" fill="none" xmlns="http://www.w3.org/2000/svg">
<path d="M10.9414 6C11.2588 6 11.5625 6.0734 11.8516 6.21875C12.2126 6.42253 12.5009 6.7451 12.6602 7.12402C12.7614 7.38607 12.9202 8.1696 12.9209 8.1875C13.0669 8.98161 13.1509 10.2352 13.1631 11.6396L13.165 11.9932C13.165 13.4648 13.079 14.807 12.9492 15.6816L12.835 16.2256C12.7717 16.5135 12.6892 16.8414 12.6025 17.0088C12.2852 17.6211 11.6642 17.9998 11 18H10.9414C10.5102 17.9856 9.60702 17.6093 9.59863 17.5928C8.13464 16.9785 5.31031 15.1244 4.00586 13.8027L3.62695 13.4062C3.52776 13.2988 3.41593 13.1714 3.34668 13.0723C3.11543 12.7661 3.00002 12.3867 3 12.0078C3 11.585 3.1297 11.1917 3.375 10.8701L3.76465 10.4492L3.85156 10.3594C5.03521 9.0761 8.12647 6.97812 9.74316 6.33594L9.9873 6.24219C10.2809 6.13698 10.692 6.01165 10.9414 6ZM19.4971 10.4824C20.3269 10.4826 20.9998 11.1621 21 12C21 12.8382 20.3271 13.5184 19.4971 13.5186L15.7979 13.1914C15.1466 13.1914 14.6182 12.6576 14.6182 12C14.6184 11.3415 15.1467 10.8096 15.7979 10.8096L19.4971 10.4824Z" fill="#24252C"/>
</svg>
