<svg width="24" height="28" viewBox="0 0 24 28" fill="none" xmlns="http://www.w3.org/2000/svg">
<circle cx="11.7188" cy="3.5" r="3.5" fill="#FFD66B"/>
<path d="M9.09375 9.61346C7.32959 8.77117 4.86377 8.35858 1.5625 8.34393C1.25116 8.3397 0.945925 8.43049 0.687503 8.60418C0.475387 8.74756 0.301753 8.94086 0.181872 9.16708C0.0619913 9.3933 -0.000463067 9.64552 2.58489e-06 9.90155V23.8713C2.58489e-06 24.8156 0.671878 25.528 1.5625 25.528C5.03272 25.528 8.51367 25.8522 10.5986 27.8229C10.6272 27.85 10.663 27.8681 10.7017 27.875C10.7405 27.8819 10.7803 27.8772 10.8165 27.8616C10.8526 27.846 10.8833 27.8201 10.9048 27.7872C10.9263 27.7543 10.9377 27.7158 10.9375 27.6764V11.216C10.9376 11.1049 10.9138 10.9952 10.8678 10.8941C10.8218 10.793 10.7547 10.703 10.6709 10.6301C10.1933 10.2218 9.66281 9.87982 9.09375 9.61346ZM22.75 8.60272C22.4915 8.42945 22.1862 8.33917 21.875 8.34393C18.5737 8.35858 16.1079 8.76922 14.3438 9.61346C13.7747 9.87934 13.2441 10.2206 12.7661 10.6281C12.6825 10.7011 12.6155 10.7912 12.5696 10.8923C12.5237 10.9933 12.5 11.103 12.5 11.214V27.6755C12.5 27.7133 12.5111 27.7502 12.532 27.7817C12.5529 27.8132 12.5827 27.8378 12.6175 27.8525C12.6523 27.8671 12.6907 27.8712 12.7278 27.8641C12.765 27.857 12.7992 27.8391 12.8262 27.8127C14.0796 26.5676 16.2793 25.5265 21.877 25.527C22.2914 25.527 22.6888 25.3624 22.9818 25.0694C23.2748 24.7764 23.4395 24.3789 23.4395 23.9645V9.90203C23.44 9.6455 23.3774 9.39278 23.2572 9.16617C23.1369 8.93957 22.9628 8.74605 22.75 8.60272Z" fill="#900EBF"/>
</svg>
