<svg width="18" height="18" viewBox="0 0 18 18" fill="none" xmlns="http://www.w3.org/2000/svg">
<path d="M3 4.5C3.39782 4.5 3.77936 4.34196 4.06066 4.06066C4.34196 3.77936 4.5 3.39782 4.5 3C4.5 2.60218 4.34196 2.22064 4.06066 1.93934C3.77936 1.65804 3.39782 1.5 3 1.5C2.60218 1.5 2.22064 1.65804 1.93934 1.93934C1.65804 2.22064 1.5 2.60218 1.5 3C1.5 3.39782 1.65804 3.77936 1.93934 4.06066C2.22064 4.34196 2.60218 4.5 3 4.5ZM3.75 15.75C4.34674 15.75 4.91903 15.5129 5.34099 15.091C5.76295 14.669 6 14.0967 6 13.5C6 12.9033 5.76295 12.331 5.34099 11.909C4.91903 11.4871 4.34674 11.25 3.75 11.25C3.15326 11.25 2.58097 11.4871 2.15901 11.909C1.73705 12.331 1.5 12.9033 1.5 13.5C1.5 14.0967 1.73705 14.669 2.15901 15.091C2.58097 15.5129 3.15326 15.75 3.75 15.75ZM14.25 16.5C14.8467 16.5 15.419 16.2629 15.841 15.841C16.2629 15.419 16.5 14.8467 16.5 14.25C16.5 13.6533 16.2629 13.081 15.841 12.659C15.419 12.2371 14.8467 12 14.25 12C13.6533 12 13.081 12.2371 12.659 12.659C12.2371 13.081 12 13.6533 12 14.25C12 14.8467 12.2371 15.419 12.659 15.841C13.081 16.2629 13.6533 16.5 14.25 16.5ZM8.25 10.5C9.04565 10.5 9.80871 10.1839 10.3713 9.62132C10.9339 9.05871 11.25 8.29565 11.25 7.5C11.25 6.70435 10.9339 5.94129 10.3713 5.37868C9.80871 4.81607 9.04565 4.5 8.25 4.5C7.45435 4.5 6.69129 4.81607 6.12868 5.37868C5.56607 5.94129 5.25 6.70435 5.25 7.5C5.25 8.29565 5.56607 9.05871 6.12868 9.62132C6.69129 10.1839 7.45435 10.5 8.25 10.5ZM12.75 4.5C13.1478 4.5 13.5294 4.34196 13.8107 4.06066C14.092 3.77936 14.25 3.39782 14.25 3C14.25 2.60218 14.092 2.22064 13.8107 1.93934C13.5294 1.65804 13.1478 1.5 12.75 1.5C12.3522 1.5 11.9706 1.65804 11.6893 1.93934C11.408 2.22064 11.25 2.60218 11.25 3C11.25 3.39782 11.408 3.77936 11.6893 4.06066C11.9706 4.34196 12.3522 4.5 12.75 4.5Z" stroke="#8B88B5" stroke-linecap="round" stroke-linejoin="round"/>
<path d="M4.125 4.125L5.625 5.625M11.25 4.5L10.5 5.25M12.75 12.5625L10.5 9.75M5.25 11.625L6.75 10.125" stroke="#8B88B5" stroke-linecap="round" stroke-linejoin="round"/>
</svg>
