<svg width="30" height="26" viewBox="0 0 30 26" fill="none" xmlns="http://www.w3.org/2000/svg">
<path d="M4.5 26V23.1111H25.5V26H4.5ZM4.5 20.9444L2.5875 9.35278C2.5375 9.35278 2.481 9.35904 2.418 9.37156C2.355 9.38408 2.299 9.38985 2.25 9.38889C1.625 9.38889 1.094 9.178 0.657003 8.75623C0.220003 8.33445 0.00100341 7.82311 3.40909e-06 7.22222C-0.00099659 6.62134 0.218003 6.11 0.657003 5.68823C1.096 5.26645 1.627 5.05556 2.25 5.05556C2.873 5.05556 3.4045 5.26645 3.8445 5.68823C4.2845 6.11 4.503 6.62134 4.5 7.22222C4.5 7.39074 4.481 7.54722 4.443 7.69167C4.405 7.83611 4.3615 7.96852 4.3125 8.08889L9 10.1111L13.6875 3.93611C13.4125 3.74352 13.1875 3.49074 13.0125 3.17778C12.8375 2.86482 12.75 2.52778 12.75 2.16667C12.75 1.56482 12.969 1.053 13.407 0.631225C13.845 0.209448 14.376 -0.000959673 15 3.2903e-06C15.624 0.000966253 16.1555 0.211855 16.5945 0.63267C17.0335 1.05348 17.252 1.56482 17.25 2.16667C17.25 2.52778 17.1625 2.86482 16.9875 3.17778C16.8125 3.49074 16.5875 3.74352 16.3125 3.93611L21 10.1111L25.6875 8.08889C25.6375 7.96852 25.5935 7.83611 25.5555 7.69167C25.5175 7.54722 25.499 7.39074 25.5 7.22222C25.5 6.62037 25.719 6.10856 26.157 5.68678C26.595 5.265 27.126 5.0546 27.75 5.05556C28.374 5.05652 28.9055 5.26741 29.3445 5.68823C29.7835 6.10904 30.002 6.62037 30 7.22222C29.998 7.82408 29.7795 8.33589 29.3445 8.75767C28.9095 9.17945 28.378 9.38985 27.75 9.38889C27.7 9.38889 27.644 9.38311 27.582 9.37156C27.52 9.36 27.4635 9.35374 27.4125 9.35278L25.5 20.9444H4.5Z" fill="white"/>
</svg>
