<svg width="53" height="53" viewBox="0 0 53 53" fill="none" xmlns="http://www.w3.org/2000/svg">
<path d="M48.5832 18.0244V18.1856C48.5832 20.0848 48.5832 21.0366 48.126 21.8139C47.6689 22.5912 46.8364 23.0528 45.1757 23.9781L43.4245 24.9497C44.6303 20.8687 45.0344 16.483 45.1823 12.7332L45.2044 12.2452L45.2088 12.1304C46.6465 12.6295 47.4547 13.0027 47.9582 13.7005C48.5832 14.5684 48.5832 15.7211 48.5832 18.0244ZM4.4165 18.0244V18.1856C4.4165 20.0848 4.4165 21.0366 4.87363 21.8139C5.33075 22.5912 6.1633 23.0528 7.82396 23.9781L9.57738 24.9497C8.36942 20.8687 7.9653 16.483 7.81734 12.7332L7.79525 12.2452L7.79305 12.1304C6.35321 12.6295 5.54496 13.0027 5.04146 13.7005C4.4165 14.5684 4.4165 15.7233 4.4165 18.0244Z" fill="#F0E73A"/>
<path fill-rule="evenodd" clip-rule="evenodd" d="M36.1656 5.18281C32.9706 4.65942 29.7374 4.40311 26.4998 4.41652C22.5623 4.41652 19.3161 4.76322 16.8339 5.18281C14.3186 5.60681 13.0621 5.81881 12.0109 7.11289C10.9619 8.40697 11.0171 9.80485 11.1276 12.6006C11.5096 22.2024 13.581 34.1981 24.8435 35.2581V43.0623H21.6856C21.1753 43.0627 20.6808 43.2397 20.2863 43.5634C19.8917 43.8871 19.6215 44.3374 19.5214 44.8379L19.1018 46.9269H13.2498C12.8105 46.9269 12.3892 47.1014 12.0786 47.412C11.768 47.7226 11.5935 48.1439 11.5935 48.5832C11.5935 49.0224 11.768 49.4437 12.0786 49.7543C12.3892 50.0649 12.8105 50.2394 13.2498 50.2394H39.7498C40.189 50.2394 40.6103 50.0649 40.9209 49.7543C41.2315 49.4437 41.406 49.0224 41.406 48.5832C41.406 48.1439 41.2315 47.7226 40.9209 47.412C40.6103 47.1014 40.189 46.9269 39.7498 46.9269H33.8977L33.4781 44.8379C33.3781 44.3374 33.1078 43.8871 32.7133 43.5634C32.3187 43.2397 31.8243 43.0627 31.3139 43.0623H28.156V35.2581C39.4185 34.1981 41.4921 22.2046 41.872 12.6006C41.9824 9.80485 42.0398 8.40477 40.9886 7.11289C39.9375 5.81881 38.6809 5.60681 36.1656 5.18281ZM28.2377 12.8236C28.5404 12.949 28.7991 13.1613 28.9811 13.4337C29.1631 13.7061 29.2602 14.0264 29.2602 14.354V23.1873C29.2602 23.6266 29.0857 24.0479 28.7751 24.3585C28.4645 24.6691 28.0432 24.8436 27.6039 24.8436C27.1647 24.8436 26.7434 24.6691 26.4328 24.3585C26.1222 24.0479 25.9477 23.6266 25.9477 23.1873V18.3511L25.4618 18.8369C25.3102 18.9997 25.1274 19.1302 24.9242 19.2207C24.721 19.3112 24.5017 19.3599 24.2793 19.3638C24.0569 19.3677 23.8361 19.3268 23.6298 19.2435C23.4236 19.1602 23.2362 19.0362 23.079 18.879C22.9217 18.7217 22.7977 18.5344 22.7144 18.3281C22.6311 18.1219 22.5902 17.901 22.5941 17.6786C22.598 17.4562 22.6467 17.2369 22.7372 17.0337C22.8278 16.8306 22.9583 16.6477 23.121 16.4961L26.4335 13.1836C26.665 12.952 26.9599 12.7941 27.281 12.7301C27.6022 12.666 27.9351 12.6986 28.2377 12.8236Z" fill="#F0E73A"/>
</svg>
