<svg width="16" height="21" viewBox="0 0 16 21" fill="none" xmlns="http://www.w3.org/2000/svg">
<path d="M6 1.0017C6 0.121705 7.056 -0.329295 7.692 0.279705C9.65 2.1557 10.788 6.2747 9.442 9.3997L9.362 9.5737L9.374 9.5767C9.999 9.7097 10.577 9.14671 11.677 7.40371L11.817 7.17971C11.8981 7.0491 12.0083 6.93896 12.1389 6.85785C12.2696 6.77674 12.4171 6.72685 12.5702 6.71204C12.7232 6.69724 12.8776 6.71793 13.0214 6.77251C13.1651 6.82708 13.2943 6.91407 13.399 7.0267C14.733 8.4617 16 11.4037 16 13.2967C16 17.5617 12.409 21.0017 8 21.0017C3.591 21.0017 0 17.5617 0 13.2957C0 11.0437 1.022 8.5797 2.632 6.9947L3.237 6.4057C3.478 6.1697 3.671 5.97571 3.855 5.7817C5.285 4.2697 6 2.8577 6 1.0017Z" fill="#FEB720"/>
</svg>
