<svg width="21" height="21" viewBox="0 0 21 21" fill="none" xmlns="http://www.w3.org/2000/svg">
<path d="M5.35425 14.6962C4.82802 14.7733 3.96177 14.9169 3.3855 14.2631C2.80923 13.6093 2.31089 12.0306 2.09187 10.6197C1.76866 8.54016 2.08941 6.78756 2.99421 5.68506C3.52741 5.03578 4.22714 4.65967 5.01792 4.59979C5.69509 4.5477 6.70694 4.81266 7.68394 6.37125C8.29589 7.34783 8.76142 8.64516 8.96116 9.93018C9.20233 11.4814 9.43735 13.1368 8.61499 13.7303C8.1511 14.0654 7.81806 14.1814 7.03097 14.3689C6.38374 14.5227 5.88089 14.6187 5.35425 14.6962ZM4.41827 16.0304L8.88446 15.1092C9.26181 15.0313 9.5645 15.2388 9.70478 15.8606C10.165 17.9016 9.50544 20.3436 7.43989 20.3436C5.48386 20.3436 4.18038 18.114 3.96751 16.9156C3.8703 16.3721 4.00894 16.1145 4.41827 16.0304ZM13.9696 10.4318C13.1825 10.2452 12.8494 10.1283 12.3856 9.79319C11.5632 9.19969 11.7982 7.5443 12.0394 5.99309C12.2391 4.70807 12.7047 3.4091 13.3166 2.43416C14.2928 0.875569 15.3046 0.610608 15.9826 0.662698C16.7726 0.722991 17.4727 1.09828 18.0059 1.74756C18.9116 2.85006 19.2323 4.60266 18.9083 6.68215C18.6888 8.09309 18.1921 9.66645 17.6126 10.3256C17.033 10.9847 16.1717 10.8358 15.6438 10.7587C15.116 10.6816 14.6164 10.5852 13.9696 10.4318ZM16.5819 12.0929L12.1157 11.1717C11.7383 11.0938 11.4356 11.3013 11.2954 11.9231C10.8356 13.9641 11.4951 16.4061 13.5607 16.4061C15.5167 16.4061 16.8202 14.1765 17.033 12.978C17.1298 12.4346 16.9912 12.177 16.5819 12.0929Z" fill="#34CDFD"/>
</svg>
