<svg width="30" height="37" viewBox="0 0 30 37" fill="none" xmlns="http://www.w3.org/2000/svg">
<path d="M24 17.5L19.5 13C18.5053 13.9944 17.1565 14.553 15.75 14.553C14.3435 14.553 12.9947 13.9944 12 13L9 16L13.5 20.5L7.5 26.5L3 22L0 25C0.994391 25.9947 1.55301 27.3435 1.55301 28.75C1.55301 30.1565 0.994391 31.5053 0 32.5L4.5 37C5.49465 36.0056 6.84353 35.447 8.25 35.447C9.65647 35.447 11.0053 36.0056 12 37L15 34L10.5 29.5L16.5 23.5L21 28L24 25C23.0056 24.0053 22.447 22.6565 22.447 21.25C22.447 19.8435 23.0056 18.4947 24 17.5Z" fill="#9510BC"/>
<path d="M25.9485 2.00378C22.9566 2.00378 19.5653 5.86457 20.0458 8.97994L20.0552 9C21.5308 7.84009 22.2765 7.94037 22.9597 8.14762C25.3807 8.86964 25.8143 9.10362 27.3399 8.62896C31.8231 7.26515 30.1509 1.83664 25.9453 2.00378H25.9485Z" fill="#FFD66B"/>
<path d="M15.8419 4.21747C16.2142 4.38477 17.1465 5.06919 17.3837 6H17.3936C18.6949 5.05398 17.7099 1.29121 16.2472 0.430362C14.4286 -0.640372 12.3564 0.369525 13.1899 2.54445C13.4897 3.32621 14.5341 3.63344 15.8419 4.21747Z" fill="#FFD66B"/>
</svg>
