<svg width="31" height="31" viewBox="0 0 31 31" fill="none" xmlns="http://www.w3.org/2000/svg">
<path d="M27.7063 14.5015H25.9109C25.6763 12.0597 24.5993 9.77566 22.8647 8.04109C21.1301 6.30651 18.8461 5.22954 16.4042 4.99488V3.19946C16.4042 2.94253 16.3022 2.69613 16.1205 2.51445C15.9388 2.33278 15.6924 2.23071 15.4355 2.23071C15.1786 2.23071 14.9322 2.33278 14.7505 2.51445C14.5688 2.69613 14.4667 2.94253 14.4667 3.19946V4.99488C12.0356 5.24127 9.76535 6.3237 8.04338 8.05745C6.32141 9.7912 5.25448 12.0688 5.02466 14.5015H3.22925C3.10203 14.5015 2.97606 14.5266 2.85852 14.5753C2.74099 14.624 2.6342 14.6953 2.54424 14.7853C2.45428 14.8752 2.38292 14.982 2.33424 15.0996C2.28556 15.2171 2.2605 15.3431 2.2605 15.4703C2.2605 15.5975 2.28556 15.7235 2.33424 15.841C2.38292 15.9586 2.45428 16.0653 2.54424 16.1553C2.6342 16.2453 2.74099 16.3166 2.85852 16.3653C2.97606 16.414 3.10203 16.439 3.22925 16.439H5.02466C5.25932 18.8809 6.3363 21.1649 8.07087 22.8995C9.80545 24.6341 12.0895 25.7111 14.5313 25.9457V27.7411C14.5313 27.9981 14.6334 28.2445 14.8151 28.4261C14.9967 28.6078 15.2432 28.7099 15.5001 28.7099C15.757 28.7099 16.0034 28.6078 16.1851 28.4261C16.3668 28.2445 16.4688 27.9981 16.4688 27.7411V25.9457C18.9097 25.7087 21.1925 24.6309 22.9266 22.8968C24.6607 21.1627 25.7384 18.88 25.9755 16.439H27.7709C27.8981 16.439 28.0241 16.414 28.1416 16.3653C28.2592 16.3166 28.366 16.2453 28.4559 16.1553C28.5459 16.0653 28.6172 15.9586 28.6659 15.841C28.7146 15.7235 28.7397 15.5975 28.7397 15.4703C28.7397 15.3431 28.7146 15.2171 28.6659 15.0996C28.6172 14.982 28.5459 14.8752 28.4559 14.7853C28.366 14.6953 28.2592 14.624 28.1416 14.5753C28.0241 14.5266 27.8981 14.5015 27.7709 14.5015H27.7063ZM15.4355 24.047C13.7392 24.047 12.081 23.544 10.6706 22.6015C9.26013 21.6591 8.16084 20.3196 7.51169 18.7524C6.86254 17.1853 6.6927 15.4608 7.02363 13.7971C7.35456 12.1334 8.17141 10.6051 9.37088 9.40568C10.5703 8.20621 12.0986 7.38936 13.7623 7.05843C15.426 6.7275 17.1505 6.89734 18.7176 7.54649C20.2848 8.19564 21.6243 9.29493 22.5667 10.7054C23.5092 12.1158 24.0122 13.774 24.0122 15.4703C24.0122 17.7462 23.109 19.929 21.5009 21.5395C19.8928 23.15 17.7114 24.0565 15.4355 24.0599V24.047Z" fill="#900EBF"/>
<path d="M21.2867 15.4833C21.2867 16.6437 20.9424 17.778 20.2975 18.7426C19.6526 19.7073 18.7359 20.4589 17.6636 20.9023C16.5914 21.3458 15.4116 21.4612 14.2737 21.2338C13.1358 21.0065 12.091 20.4467 11.2714 19.6253C10.4518 18.8039 9.89427 17.7578 9.66946 16.6194C9.44465 15.481 9.56262 14.3015 10.0085 13.2302C10.4543 12.1589 11.2079 11.244 12.174 10.6012C13.14 9.95835 14.2751 9.6166 15.4354 9.61915C16.2049 9.61915 16.9669 9.77093 17.6776 10.0658C18.3883 10.3606 19.034 10.7928 19.5775 11.3375C20.121 11.8822 20.5517 12.5288 20.845 13.2402C21.1383 13.9516 21.2884 14.7138 21.2867 15.4833Z" fill="#900EBF"/>
</svg>
