<svg width="18" height="20" viewBox="0 0 18 20" fill="none" xmlns="http://www.w3.org/2000/svg">
<path fill-rule="evenodd" clip-rule="evenodd" d="M3.26999 0.700959L14.5525 0.696777C14.903 0.696705 15.2406 0.828633 15.4981 1.06629C15.7557 1.30394 15.9143 1.62988 15.9423 1.9792L17.1885 17.3111C17.2034 17.4937 17.1821 17.6773 17.126 17.8516C17.0699 18.0259 16.98 18.1875 16.8614 18.327C16.7428 18.4666 16.5979 18.5814 16.4349 18.6649C16.272 18.7484 16.0942 18.799 15.9116 18.8138L15.8001 18.818H2.09072C1.72102 18.818 1.36647 18.6711 1.10505 18.4097C0.843639 18.1483 0.696777 17.7937 0.696777 17.424L0.70096 17.3167L1.88023 1.98757C1.90727 1.6375 2.06541 1.31053 2.32306 1.07201C2.58071 0.83348 2.91888 0.70097 3.26999 0.700959Z" stroke="white" stroke-width="1.39394" stroke-linecap="round" stroke-linejoin="round"/>
<path d="M13.1307 6.27246V7.17155C13.1307 8.71186 10.4892 9.06034 8.94891 9.06034C7.4086 9.06034 4.76709 8.50973 4.76709 6.96943V6.27246" stroke="white" stroke-width="1.39394" stroke-linecap="round" stroke-linejoin="round"/>
</svg>
