<svg width="16" height="18" viewBox="0 0 16 18" fill="none" xmlns="http://www.w3.org/2000/svg">
<path fill-rule="evenodd" clip-rule="evenodd" d="M13.3333 1.25581C13.1448 1.25581 12.958 1.29371 12.7838 1.36734C12.6096 1.44097 12.4513 1.54889 12.318 1.68494C12.1847 1.82099 12.0789 1.9825 12.0067 2.16025C11.9346 2.33801 11.8974 2.52853 11.8974 2.72093C11.8974 2.91333 11.9346 3.10385 12.0067 3.28161C12.0789 3.45936 12.1847 3.62088 12.318 3.75692C12.4513 3.89297 12.6096 4.00089 12.7838 4.07452C12.958 4.14815 13.1448 4.18605 13.3333 4.18605C13.7142 4.18605 14.0794 4.03169 14.3487 3.75692C14.6179 3.48216 14.7692 3.1095 14.7692 2.72093C14.7692 2.33236 14.6179 1.9597 14.3487 1.68494C14.0794 1.41017 13.7142 1.25581 13.3333 1.25581ZM10.6667 2.72093C10.6667 1.99929 10.9476 1.30722 11.4477 0.796942C11.9478 0.286669 12.6261 0 13.3333 0C14.0406 0 14.7189 0.286669 15.219 0.796942C15.719 1.30722 16 1.99929 16 2.72093C16 3.44257 15.719 4.13464 15.219 4.64492C14.7189 5.15519 14.0406 5.44186 13.3333 5.44186C12.6261 5.44186 11.9478 5.15519 11.4477 4.64492C10.9476 4.13464 10.6667 3.44257 10.6667 2.72093ZM5.51549 3.81767C5.88209 3.65213 6.27719 3.56231 6.67799 3.5534C7.07879 3.54449 7.47735 3.61667 7.85067 3.76577C9.95774 4.60298 10.4665 7.40763 8.79426 8.95981L7.94092 9.75181L7.89169 9.79702C7.78051 9.90408 7.69418 10.0351 7.63903 10.1806C7.58388 10.3261 7.5613 10.4823 7.57294 10.6378C7.58458 10.7934 7.63015 10.9443 7.70631 11.0795C7.78247 11.2148 7.8873 11.3309 8.01313 11.4195L8.01641 11.4212L8.11897 11.5016C8.87744 12.1008 9.49323 12.8673 9.92022 13.7437C10.3472 14.6202 10.5743 15.5838 10.5846 16.5625V17.3721C10.5846 17.5386 10.5198 17.6983 10.4044 17.8161C10.289 17.9338 10.1324 18 9.96923 18C9.80602 18 9.6495 17.9338 9.53409 17.8161C9.41868 17.6983 9.35385 17.5386 9.35385 17.3721V16.5759C9.34546 15.7658 9.15285 14.9688 8.7912 14.2477C8.42954 13.5265 7.90871 12.9008 7.26974 12.42L7.26482 12.4158L7.19836 12.3639C6.93865 12.1547 6.72722 11.8897 6.57906 11.5878C6.4309 11.2859 6.34963 10.9544 6.34102 10.6169C6.3324 10.2793 6.39666 9.94401 6.52922 9.63464C6.66178 9.32528 6.85941 9.04944 7.1081 8.8267L7.11221 8.82251L7.96554 8.03051C8.96246 7.10623 8.65887 5.43516 7.40349 4.93535C7.18118 4.8464 6.94379 4.80333 6.70506 4.80865C6.46633 4.81397 6.23101 4.86756 6.01272 4.96633L5.58441 5.15888C5.13723 5.36065 4.93046 5.45358 4.72944 5.55572C4.39075 5.72689 4.062 5.91781 3.74482 6.12753C3.5561 6.25144 3.37149 6.3854 2.97354 6.67507L1.79282 7.53237C1.72698 7.5802 1.65256 7.61432 1.5738 7.6328C1.49504 7.65128 1.41348 7.65375 1.33378 7.64006C1.25409 7.62638 1.17781 7.59682 1.10931 7.55306C1.04082 7.5093 0.981436 7.4522 0.934564 7.38502C0.887692 7.31785 0.854247 7.24191 0.836137 7.16154C0.818028 7.08118 0.815609 6.99796 0.829018 6.91665C0.842428 6.83533 0.871404 6.7575 0.914292 6.68761C0.957179 6.61772 1.01314 6.55713 1.07897 6.5093L2.27364 5.64279C2.65436 5.36567 2.86195 5.21498 3.0761 5.07349C3.4333 4.83851 3.80198 4.62446 4.18215 4.43135C4.41108 4.31581 4.6441 4.21116 5.07241 4.0186L5.51549 3.81767ZM10.6847 8.84763C10.7043 8.76757 10.7391 8.69222 10.7873 8.62591C10.8354 8.5596 10.8959 8.50362 10.9652 8.46116C11.0345 8.41871 11.1114 8.39062 11.1914 8.37849C11.2714 8.36637 11.3529 8.37046 11.4314 8.39051C12.4108 8.6402 13.4354 8.6402 14.4148 8.39051C14.5732 8.3501 14.7409 8.37556 14.8809 8.46128C15.0209 8.54701 15.1218 8.68598 15.1614 8.84763C15.201 9.00927 15.1761 9.18035 15.0921 9.32323C15.0081 9.46611 14.8719 9.56908 14.7134 9.60949C13.5379 9.90922 12.3082 9.90922 11.1327 9.60949C11.0543 9.58952 10.9804 9.55396 10.9154 9.50486C10.8504 9.45575 10.7956 9.39406 10.754 9.3233C10.7124 9.25255 10.6848 9.17412 10.6729 9.0925C10.6611 9.01088 10.6651 8.92767 10.6847 8.84763ZM5.93231 12.7038C6.05761 12.8104 6.1363 12.9634 6.15107 13.1292C6.16584 13.295 6.11549 13.46 6.01108 13.5879L5.79774 13.8483C5.16477 14.6236 4.37242 15.2475 3.47684 15.6756C2.58126 16.1037 1.60437 16.3256 0.615385 16.3256C0.452174 16.3256 0.295649 16.2594 0.180242 16.1417C0.0648349 16.0239 0 15.8642 0 15.6977C0 15.5311 0.0648349 15.3714 0.180242 15.2537C0.295649 15.1359 0.452174 15.0698 0.615385 15.0698C1.42398 15.0699 2.22269 14.8885 2.95492 14.5385C3.68716 14.1885 4.33499 13.6785 4.85251 13.0446L5.06585 12.7842C5.17033 12.6563 5.32029 12.576 5.48277 12.561C5.64525 12.5459 5.80694 12.5973 5.93231 12.7038Z" fill="#8B88B5"/>
</svg>
