<svg width="16" height="23" viewBox="0 0 16 23" fill="none" xmlns="http://www.w3.org/2000/svg">
<path d="M10.6657 4.40587e-06C11.4554 -0.00132641 12.2178 0.29887 12.8059 0.842784C13.3939 1.3867 13.7662 2.13587 13.8509 2.94602C13.9356 3.75617 13.7268 4.57002 13.2647 5.23083C12.8026 5.89165 12.1199 6.3527 11.348 6.5252L11.1657 6.5604L12.6967 9.0871L14.5347 8.3281C14.7876 8.2228 15.0699 8.22143 15.3236 8.32427C15.5774 8.42711 15.7833 8.62634 15.8991 8.88102C16.0149 9.13569 16.0317 9.42645 15.9461 9.69352C15.8605 9.96058 15.679 10.1837 15.4388 10.3169L15.3258 10.3719L13.4888 11.1298C13.0534 11.3096 12.5726 11.3362 12.1211 11.2055C11.6695 11.0749 11.2722 10.7942 10.9908 10.4071L10.8885 10.2531L10.7147 9.9671L10.0686 12.6335C10.0127 12.8655 9.92053 13.0866 9.79569 13.288L9.69973 13.431L11.4621 14.7818C11.8824 15.1041 12.1731 15.5747 12.2788 16.104L12.3097 16.3042L12.686 19.8H12.798C13.0697 19.8003 13.3311 19.9077 13.5287 20.1001C13.7263 20.2926 13.8452 20.5556 13.8611 20.8355C13.877 21.1154 13.7888 21.391 13.6144 21.606C13.44 21.821 13.1926 21.9592 12.9227 21.9923L12.798 22H11.8278C11.561 22.0001 11.3021 21.9063 11.0939 21.7341C10.8857 21.5619 10.7407 21.3216 10.6827 21.0529L10.6614 20.9242L10.1902 16.5473L6.83178 13.9733C6.77201 13.928 6.71698 13.8764 6.66759 13.8193C6.37135 13.5747 6.14374 13.253 6.00824 12.8873C5.87274 12.5217 5.83426 12.1253 5.89676 11.7392L5.93195 11.5665L6.77847 8.0718L5.10461 8.5888L4.21437 11.3476C4.12887 11.6145 3.94756 11.8376 3.70767 11.9709C3.46778 12.1042 3.18752 12.1377 2.92444 12.0645C2.66136 11.9913 2.43543 11.8169 2.29305 11.5772C2.15067 11.3375 2.10264 11.0507 2.15883 10.7756L2.19082 10.6524L3.08212 7.8936C3.18114 7.58749 3.34421 7.3076 3.55978 7.07378C3.77535 6.83996 4.03814 6.65793 4.32952 6.5406L4.49264 6.4823L8.15701 5.3482C7.78389 4.86189 7.55116 4.27693 7.48551 3.6604C7.41986 3.04388 7.52394 2.42074 7.78581 1.86245C8.04769 1.30415 8.45676 0.833304 8.96612 0.503893C9.47549 0.174482 10.0645 -0.000156122 10.6657 4.40587e-06ZM7.04075 14.52C7.26696 14.695 7.4165 14.9556 7.45649 15.2444C7.49648 15.5332 7.42363 15.8266 7.25398 16.06L5.95753 17.8442C5.71225 18.1816 5.35107 18.4093 4.94816 18.4804C4.54526 18.5516 4.13123 18.4609 3.79111 18.227L1.73344 16.8113C1.52045 16.9876 1.25001 17.0729 0.977861 17.0496C0.705717 17.0263 0.452625 16.8961 0.270775 16.6859C0.088925 16.4757 -0.00781805 16.2015 0.000494547 15.9199C0.00880714 15.6383 0.121542 15.3707 0.315452 15.1723L0.843198 14.6289C1.01915 14.447 1.25079 14.3337 1.49865 14.3082C1.74651 14.2827 1.99527 14.3467 2.20254 14.4892L4.55448 16.1073L5.54813 14.74C5.63214 14.6244 5.73738 14.5271 5.85786 14.4535C5.97833 14.3799 6.11168 14.3315 6.25028 14.3111C6.38888 14.2906 6.53002 14.2986 6.66565 14.3344C6.80128 14.3703 6.92874 14.4333 7.04075 14.52Z" fill="#900EBF"/>
</svg>
