<svg width="29" height="29" viewBox="0 0 29 29" fill="none" xmlns="http://www.w3.org/2000/svg">
<path d="M13.5938 6.34375V11.7812C13.5938 12.262 13.4028 12.723 13.0629 13.0629C12.723 13.4028 12.262 13.5938 11.7812 13.5938H6.34375C5.86305 13.5938 5.40203 13.4028 5.06212 13.0629C4.72221 12.723 4.53125 12.262 4.53125 11.7812V6.34375C4.53125 5.86305 4.72221 5.40203 5.06212 5.06212C5.40203 4.72221 5.86305 4.53125 6.34375 4.53125H11.7812C12.262 4.53125 12.723 4.72221 13.0629 5.06212C13.4028 5.40203 13.5938 5.86305 13.5938 6.34375ZM22.6562 4.53125H17.2188C16.738 4.53125 16.277 4.72221 15.9371 5.06212C15.5972 5.40203 15.4062 5.86305 15.4062 6.34375V11.7812C15.4062 12.262 15.5972 12.723 15.9371 13.0629C16.277 13.4028 16.738 13.5938 17.2188 13.5938H22.6562C23.137 13.5938 23.598 13.4028 23.9379 13.0629C24.2778 12.723 24.4688 12.262 24.4688 11.7812V6.34375C24.4688 5.86305 24.2778 5.40203 23.9379 5.06212C23.598 4.72221 23.137 4.53125 22.6562 4.53125ZM11.7812 15.4062H6.34375C5.86305 15.4062 5.40203 15.5972 5.06212 15.9371C4.72221 16.277 4.53125 16.738 4.53125 17.2188V22.6562C4.53125 23.137 4.72221 23.598 5.06212 23.9379C5.40203 24.2778 5.86305 24.4688 6.34375 24.4688H11.7812C12.262 24.4688 12.723 24.2778 13.0629 23.9379C13.4028 23.598 13.5938 23.137 13.5938 22.6562V17.2188C13.5938 16.738 13.4028 16.277 13.0629 15.9371C12.723 15.5972 12.262 15.4062 11.7812 15.4062ZM22.6562 15.4062H17.2188C16.738 15.4062 16.277 15.5972 15.9371 15.9371C15.5972 16.277 15.4062 16.738 15.4062 17.2188V22.6562C15.4062 23.137 15.5972 23.598 15.9371 23.9379C16.277 24.2778 16.738 24.4688 17.2188 24.4688H22.6562C23.137 24.4688 23.598 24.2778 23.9379 23.9379C24.2778 23.598 24.4688 23.137 24.4688 22.6562V17.2188C24.4688 16.738 24.2778 16.277 23.9379 15.9371C23.598 15.5972 23.137 15.4062 22.6562 15.4062Z" fill="#900EBF"/>
<path d="M22.6562 4.53125H17.2188C16.738 4.53125 16.277 4.72221 15.9371 5.06212C15.5972 5.40203 15.4062 5.86305 15.4062 6.34375V11.7812C15.4062 12.262 15.5972 12.723 15.9371 13.0629C16.277 13.4028 16.738 13.5938 17.2188 13.5938H22.6562C23.137 13.5938 23.598 13.4028 23.9379 13.0629C24.2778 12.723 24.4688 12.262 24.4688 11.7812V6.34375C24.4688 5.86305 24.2778 5.40203 23.9379 5.06212C23.598 4.72221 23.137 4.53125 22.6562 4.53125Z" fill="#FFD66B"/>
</svg>
