<svg width="28" height="28" viewBox="0 0 28 28" fill="none" xmlns="http://www.w3.org/2000/svg">
<path d="M10.5883 1.68352C10.6686 1.56593 10.7248 1.4336 10.7536 1.29416C10.7824 1.15473 10.7832 1.01098 10.756 0.871223C10.7289 0.731467 10.6742 0.598484 10.5953 0.479973C10.5164 0.361463 10.4147 0.259778 10.2962 0.180805C10.1777 0.101833 10.0448 0.0471409 9.90496 0.019896C9.76518 -0.00734887 9.62137 -0.0066056 9.48187 0.0220825C9.34237 0.0507706 9.20995 0.106834 9.09227 0.187027C8.9746 0.26722 8.874 0.36995 8.79631 0.48927L5.92451 4.79545C5.76982 5.03302 5.71511 5.322 5.77225 5.59965C5.82939 5.8773 5.99377 6.12122 6.22971 6.27846C6.46565 6.4357 6.75411 6.49357 7.03247 6.4395C7.31084 6.38544 7.55663 6.22381 7.71651 5.98969L10.5883 1.68352ZM14.896 1.68352C14.9763 1.56593 15.0325 1.4336 15.0613 1.29416C15.09 1.15473 15.0909 1.01098 15.0637 0.871223C15.0366 0.731467 14.9819 0.598484 14.903 0.479973C14.8241 0.361463 14.7224 0.259778 14.6039 0.180805C14.4854 0.101833 14.3524 0.0471409 14.2127 0.019896C14.0729 -0.00734887 13.9291 -0.0066056 13.7896 0.0220825C13.6501 0.0507706 13.5176 0.106834 13.4 0.187027C13.2823 0.26722 13.1817 0.36995 13.104 0.48927L10.2322 4.79545C10.1519 4.91303 10.0957 5.04537 10.0669 5.1848C10.0382 5.32423 10.0373 5.46798 10.0645 5.60774C10.0916 5.7475 10.1463 5.88048 10.2252 5.99899C10.3041 6.1175 10.4058 6.21919 10.5243 6.29816C10.6428 6.37713 10.7758 6.43182 10.9155 6.45907C11.0553 6.48631 11.1991 6.48557 11.3386 6.45688C11.4781 6.42819 11.6106 6.37213 11.7282 6.29194C11.8459 6.21174 11.9465 6.10901 12.0242 5.98969L14.896 1.68352ZM19.2037 1.68352C19.284 1.56593 19.3402 1.4336 19.3689 1.29416C19.3977 1.15473 19.3986 1.01098 19.3714 0.871223C19.3443 0.731467 19.2896 0.598484 19.2107 0.479973C19.1318 0.361463 19.0301 0.259778 18.9116 0.180805C18.7931 0.101833 18.6601 0.0471409 18.5203 0.019896C18.3806 -0.00734887 18.2368 -0.0066056 18.0973 0.0220825C17.9578 0.0507706 17.8253 0.106834 17.7077 0.187027C17.59 0.26722 17.4894 0.36995 17.4117 0.48927L14.5399 4.79545C14.4596 4.91303 14.4034 5.04537 14.3746 5.1848C14.3458 5.32423 14.345 5.46798 14.3722 5.60774C14.3993 5.7475 14.454 5.88048 14.5329 5.99899C14.6118 6.1175 14.7135 6.21919 14.832 6.29816C14.9505 6.37713 15.0835 6.43182 15.2232 6.45907C15.363 6.48631 15.5068 6.48557 15.6463 6.45688C15.7858 6.42819 15.9183 6.37213 16.0359 6.29194C16.1536 6.21174 16.2542 6.10901 16.3319 5.98969L19.2037 1.68352ZM2.40226 8.6222C1.07549 8.6222 0 9.69731 0 11.0236V21.1819C0 22.9902 0.718588 24.7244 1.99768 26.003C3.27678 27.2817 5.0116 28 6.82051 28H15.4359C17.2448 28 18.9796 27.2817 20.2587 26.003C21.5378 24.7244 22.2564 22.9902 22.2564 21.1819V19.3876H23.3333C24.571 19.3876 25.758 18.8962 26.6332 18.0213C27.5083 17.1464 28 15.9599 28 14.7226C28 13.4854 27.5083 12.2988 26.6332 11.424C25.758 10.5491 24.571 10.0576 23.3333 10.0576H22.0267C21.6763 9.25952 20.9282 8.6222 19.8542 8.6222H2.40226Z" fill="#900EBF"/>
<path d="M10.5883 1.68352C10.6686 1.56593 10.7248 1.4336 10.7536 1.29416C10.7824 1.15473 10.7832 1.01098 10.756 0.871223C10.7289 0.731467 10.6742 0.598484 10.5953 0.479973C10.5164 0.361463 10.4147 0.259778 10.2962 0.180805C10.1777 0.101833 10.0448 0.0471409 9.90496 0.019896C9.76518 -0.00734887 9.62137 -0.0066056 9.48187 0.0220825C9.34237 0.0507706 9.20995 0.106834 9.09227 0.187027C8.9746 0.26722 8.874 0.36995 8.79631 0.48927L5.92451 4.79545C5.76982 5.03302 5.71511 5.322 5.77225 5.59965C5.82939 5.8773 5.99377 6.12122 6.22971 6.27846C6.46565 6.4357 6.75411 6.49357 7.03247 6.4395C7.31084 6.38544 7.55663 6.22381 7.71651 5.98969L10.5883 1.68352ZM14.896 1.68352C14.9763 1.56593 15.0325 1.4336 15.0613 1.29416C15.09 1.15473 15.0909 1.01098 15.0637 0.871223C15.0366 0.731467 14.9819 0.598484 14.903 0.479973C14.8241 0.361463 14.7224 0.259778 14.6039 0.180805C14.4854 0.101833 14.3524 0.0471409 14.2127 0.019896C14.0729 -0.00734887 13.9291 -0.0066056 13.7896 0.0220825C13.6501 0.0507706 13.5176 0.106834 13.4 0.187027C13.2823 0.26722 13.1817 0.36995 13.104 0.48927L10.2322 4.79545C10.1519 4.91303 10.0957 5.04537 10.0669 5.1848C10.0382 5.32423 10.0373 5.46798 10.0645 5.60774C10.0916 5.7475 10.1463 5.88048 10.2252 5.99899C10.3041 6.1175 10.4058 6.21918 10.5243 6.29816C10.6428 6.37713 10.7758 6.43182 10.9155 6.45907C11.0553 6.48631 11.1991 6.48557 11.3386 6.45688C11.4781 6.42819 11.6106 6.37213 11.7282 6.29194C11.8459 6.21174 11.9465 6.10901 12.0242 5.98969L14.896 1.68352ZM19.2037 1.68352C19.284 1.56593 19.3402 1.4336 19.3689 1.29416C19.3977 1.15473 19.3986 1.01098 19.3714 0.871223C19.3443 0.731467 19.2896 0.598484 19.2107 0.479973C19.1318 0.361463 19.0301 0.259778 18.9116 0.180805C18.7931 0.101833 18.6601 0.0471409 18.5203 0.019896C18.3806 -0.00734887 18.2368 -0.0066056 18.0973 0.0220825C17.9578 0.0507706 17.8253 0.106834 17.7077 0.187027C17.59 0.26722 17.4894 0.36995 17.4117 0.48927L14.5399 4.79545C14.4596 4.91303 14.4034 5.04537 14.3746 5.1848C14.3458 5.32423 14.345 5.46798 14.3722 5.60774C14.3993 5.7475 14.454 5.88048 14.5329 5.99899C14.6118 6.1175 14.7135 6.21918 14.832 6.29816C14.9505 6.37713 15.0835 6.43182 15.2232 6.45907C15.363 6.48631 15.5068 6.48557 15.6463 6.45688C15.7858 6.42819 15.9183 6.37213 16.0359 6.29194C16.1536 6.21174 16.2542 6.10901 16.3319 5.98969L19.2037 1.68352Z" fill="#FFD66B"/>
</svg>
