<svg width="17" height="16" viewBox="0 0 17 16" fill="none" xmlns="http://www.w3.org/2000/svg">
<path d="M5.96399 14.7387C6.09737 14.8744 6.09016 15.0915 5.94596 15.2204L5.16371 15.909C5.01952 16.0379 4.78881 16.0277 4.65543 15.892L0.0952929 11.2684C-0.0380865 11.1327 -0.0308768 10.9156 0.113317 10.7867L0.89557 10.0981C0.93009 10.0677 0.97064 10.044 1.01489 10.0285C1.05915 10.0129 1.10623 10.0057 1.15345 10.0072C1.20067 10.0088 1.2471 10.0191 1.29007 10.0376C1.33304 10.0561 1.3717 10.0824 1.40385 10.115L5.96399 14.7387ZM11.7822 6.03752C11.9156 6.17321 11.9084 6.39031 11.7642 6.51922L6.83636 10.8511C6.69217 10.98 6.46146 10.9699 6.32808 10.8342L5.1529 9.6401C5.01952 9.50441 5.02673 9.2873 5.17092 9.1584L10.0988 4.82648C10.2429 4.70097 10.4737 4.70775 10.607 4.84344L11.7858 6.03752H11.7822ZM7.64024 13.263C7.77362 13.3987 7.76641 13.6158 7.62222 13.7447L6.83997 14.4334C6.69577 14.5623 6.46506 14.5521 6.33168 14.4164L1.77515 9.79275C1.64177 9.65706 1.64898 9.43996 1.79318 9.31105L2.57543 8.62242C2.71962 8.49691 2.95033 8.50369 3.08371 8.63938L7.64385 13.263H7.64024ZM15.2321 6.20374C15.3654 6.33943 15.3582 6.55653 15.214 6.68544L14.4318 7.37407C14.2876 7.50297 14.0569 7.4928 13.9235 7.35711L9.36697 2.73345C9.23359 2.59776 9.2408 2.38066 9.38499 2.25175L10.1708 1.56313C10.315 1.43761 10.5458 1.4444 10.6791 1.58009L15.2357 6.20374H15.2321ZM16.9047 4.7315C17.0381 4.86719 17.0309 5.08429 16.8867 5.2132L16.1044 5.90183C15.9602 6.03073 15.7295 6.02056 15.5961 5.88487L11.0396 1.26121C10.9062 1.12552 10.9134 0.908419 11.0576 0.779513L11.8399 0.0908838C11.8744 0.0605646 11.915 0.0369507 11.9592 0.0213926C12.0035 0.00583441 12.0506 -0.00136283 12.0978 0.000212456C12.145 0.00178775 12.1914 0.0121046 12.2344 0.0305732C12.2773 0.0490417 12.316 0.0752996 12.3482 0.107845L16.9047 4.73489V4.7315Z" fill="#8B88B5"/>
</svg>
